<svg width="1440" height="346" viewBox="0 0 1440 346" fill="none" xmlns="http://www.w3.org/2000/svg">
<g clip-path="url(#clip0_6_113)">
<path d="M284.079 135.402C202.731 81.1298 60.798 145.506 0 184.478V439H1440V184.478C1396.53 155.61 1302.11 93.3507 1272.2 75.26C1234.81 52.6465 1043.29 -11.3448 932.489 97.8734C821.685 207.092 746.903 105.091 646.586 112.789C546.27 120.487 385.763 203.243 284.079 135.402Z" fill="#3E73A7"/>
<path d="M284.079 190.515C202.731 130.721 60.798 201.647 0 244.584V525H1440V244.584C1396.53 212.779 1302.11 144.185 1272.2 124.254C1234.81 99.3401 1043.29 28.8385 932.489 149.168C821.685 269.498 746.903 157.12 646.586 165.601C546.27 174.082 385.763 265.257 284.079 190.515Z" fill="#FAD427"/>
</g>
<defs>
<clipPath id="clip0_6_113">
<rect width="1440" height="346" fill="white"/>
</clipPath>
</defs>
</svg>
